<mxfile host="65bd71144e" modified="2021-03-02T08:29:31.948Z" agent="5.0 (Windows NT 10.0; Win64; x64) AppleWebKit/537.36 (KHTML, like Gecko) Code/1.53.2 Chrome/87.0.4280.141 Electron/11.2.1 Safari/537.36" version="14.2.4" etag="nRJEtcIaUkDGxEBZYF0I" type="embed">
    <diagram id="wUoTM7aaQB9_sOSchpHY" name="Page-1">
        <mxGraphModel dx="734" dy="437" grid="1" gridSize="10" guides="1" tooltips="1" connect="1" arrows="1" fold="1" page="1" pageScale="1" pageWidth="1169" pageHeight="827" math="0" shadow="0">
            <root>
                <mxCell id="0"/>
                <mxCell id="1" parent="0"/>
                <mxCell id="7" value="no" style="edgeStyle=orthogonalEdgeStyle;rounded=0;orthogonalLoop=1;jettySize=auto;html=1;entryX=0.5;entryY=0;entryDx=0;entryDy=0;labelBackgroundColor=none;fontColor=#6EA31D;strokeColor=#FF8000;sketch=1;fillOpacity=0;" edge="1" parent="1" source="2" target="4">
                    <mxGeometry relative="1" as="geometry"/>
                </mxCell>
                <mxCell id="8" style="edgeStyle=orthogonalEdgeStyle;rounded=0;orthogonalLoop=1;jettySize=auto;html=1;entryX=0.5;entryY=0;entryDx=0;entryDy=0;labelBackgroundColor=none;fontColor=#6EA31D;strokeColor=#FF8000;sketch=1;fillOpacity=0;" edge="1" parent="1" source="2" target="3">
                    <mxGeometry relative="1" as="geometry"/>
                </mxCell>
                <mxCell id="10" value="yes" style="edgeLabel;html=1;align=center;verticalAlign=middle;resizable=0;points=[];labelBackgroundColor=none;fontColor=#6EA31D;" vertex="1" connectable="0" parent="8">
                    <mxGeometry x="-0.4259" y="2" relative="1" as="geometry">
                        <mxPoint as="offset"/>
                    </mxGeometry>
                </mxCell>
                <mxCell id="2" value="Is it a single logical change?" style="whiteSpace=wrap;html=1;labelBackgroundColor=none;fontColor=#6EA31D;strokeColor=#FF8000;sketch=1;fillOpacity=0;" vertex="1" parent="1">
                    <mxGeometry x="250" y="70" width="120" height="60" as="geometry"/>
                </mxCell>
                <mxCell id="3" value="commit" style="whiteSpace=wrap;html=1;labelBackgroundColor=none;fontColor=#6EA31D;sketch=1;strokeColor=#FF8000;fillOpacity=0;" vertex="1" parent="1">
                    <mxGeometry x="460" y="130" width="120" height="60" as="geometry"/>
                </mxCell>
                <mxCell id="6" value="no" style="edgeStyle=orthogonalEdgeStyle;rounded=0;orthogonalLoop=1;jettySize=auto;html=1;entryX=1;entryY=0.5;entryDx=0;entryDy=0;labelBackgroundColor=none;fontColor=#6EA31D;strokeColor=#FF8000;sketch=1;fillOpacity=0;" edge="1" parent="1" source="4" target="5">
                    <mxGeometry relative="1" as="geometry"/>
                </mxCell>
                <mxCell id="9" value="yes" style="edgeStyle=orthogonalEdgeStyle;rounded=0;orthogonalLoop=1;jettySize=auto;html=1;entryX=0.5;entryY=1;entryDx=0;entryDy=0;labelBackgroundColor=none;fontColor=#6EA31D;strokeColor=#FF8000;sketch=1;fillOpacity=0;" edge="1" parent="1" source="4" target="3">
                    <mxGeometry relative="1" as="geometry"/>
                </mxCell>
                <mxCell id="4" value="Do you need the context of one commit to understand the other?" style="whiteSpace=wrap;html=1;labelBackgroundColor=none;fontColor=#6EA31D;strokeColor=#FF8000;sketch=1;fillOpacity=0;" vertex="1" parent="1">
                    <mxGeometry x="215" y="190" width="190" height="60" as="geometry"/>
                </mxCell>
                <mxCell id="5" value="Split the commit" style="whiteSpace=wrap;html=1;labelBackgroundColor=none;fontColor=#6EA31D;strokeColor=#FF8000;sketch=1;fillOpacity=0;" vertex="1" parent="1">
                    <mxGeometry x="20" y="190" width="120" height="60" as="geometry"/>
                </mxCell>
            </root>
        </mxGraphModel>
    </diagram>
</mxfile>